<svg width="155" height="32" fill="none" xmlns="http://www.w3.org/2000/svg"><path d="M39.232 31.05 29.97 10.381 6.749 31.05h32.483Z" fill="url(#a)"/><path d="M37.372 2.96c4.1-4.11 11.123-1.206 11.123 4.6v14.242a9.247 9.247 0 0 1-9.247 9.247h-.016c-5.101 0-9.24-4.135-9.262-9.245v9.245-20.666l7.402-7.422Z" fill="url(#b)"/><path d="M29.97 10.383 11.054 29.349a6.614 6.614 0 0 1-4.305 1.7h-.224c-5.797 0-8.705-7.005-4.61-11.11L18.846 2.96c4.1-4.111 11.123-1.207 11.123 4.598v2.824Z" fill="url(#c)"/><path d="M64.583 16V4.8h1.696l4.08 6.64-.816-.016L73.671 4.8h1.6V16h-1.728v-4.592c0-.96.021-1.824.064-2.592.053-.768.139-1.53.256-2.288l.224.592-3.664 5.664h-1.056l-3.552-5.6.176-.656c.118.715.198 1.45.24 2.208.053.747.08 1.637.08 2.672V16h-1.728ZM80.94 16.16c-.598 0-1.12-.139-1.569-.416a2.807 2.807 0 0 1-1.024-1.168c-.234-.501-.352-1.099-.352-1.792V7.6h1.648v4.736c0 .736.17 1.317.512 1.744.352.427.838.64 1.456.64.31 0 .592-.048.848-.144.256-.107.475-.25.656-.432.192-.181.342-.4.448-.656.107-.256.16-.533.16-.832V7.6h1.648V16h-1.648v-1.76l.288-.192a2.754 2.754 0 0 1-.656 1.072c-.298.32-.656.576-1.072.768a3.327 3.327 0 0 1-1.344.272ZM87.715 16V4.16h1.648V16h-1.648ZM92.692 16V5.456h1.648V16h-1.648Zm-1.744-6.8V7.6h5.344v1.6h-5.344ZM98.064 16V7.6h1.648V16h-1.648Zm.8-10.256c-.352 0-.624-.09-.816-.272-.192-.181-.288-.437-.288-.768 0-.31.096-.56.288-.752.203-.192.475-.288.816-.288.352 0 .624.09.816.272.192.181.288.437.288.768 0 .31-.101.56-.304.752-.192.192-.459.288-.8.288ZM105.045 16.16c-.704 0-1.338-.123-1.904-.368a3.546 3.546 0 0 1-1.408-1.088l1.12-.96c.32.373.667.645 1.04.816.384.16.816.24 1.296.24.192 0 .368-.021.528-.064.171-.053.315-.128.432-.224a.953.953 0 0 0 .288-.336c.064-.139.096-.288.096-.448a.835.835 0 0 0-.304-.672 2.308 2.308 0 0 0-.512-.24 6.543 6.543 0 0 0-.88-.288c-.618-.16-1.125-.341-1.52-.544-.394-.203-.698-.432-.912-.688a2.069 2.069 0 0 1-.352-.656 2.759 2.759 0 0 1-.112-.8c0-.47.134-.885.4-1.248a2.662 2.662 0 0 1 1.072-.848 3.6 3.6 0 0 1 1.536-.32c.395 0 .784.053 1.168.16.395.107.758.261 1.088.464.331.203.608.443.832.72l-.944 1.04a3.535 3.535 0 0 0-.672-.528 3.041 3.041 0 0 0-.72-.368 2.06 2.06 0 0 0-.672-.128c-.224 0-.426.021-.608.064a1.416 1.416 0 0 0-.464.192.877.877 0 0 0-.272.32.953.953 0 0 0-.096.432c.011.139.043.272.096.4.064.117.15.219.256.304.118.085.294.176.528.272.235.096.534.187.896.272.534.139.971.293 1.312.464.352.16.63.347.832.56.214.203.363.437.448.704.086.267.128.565.128.896 0 .48-.138.912-.416 1.296a2.7 2.7 0 0 1-1.088.88c-.458.213-.97.32-1.536.32ZM113.822 16.16c-.864 0-1.632-.181-2.304-.544a4.201 4.201 0 0 1-1.568-1.52c-.374-.64-.56-1.376-.56-2.208a4.9 4.9 0 0 1 .32-1.808 4.3 4.3 0 0 1 .88-1.408 3.858 3.858 0 0 1 1.36-.928 4.414 4.414 0 0 1 1.728-.336c.544 0 1.05.107 1.52.32.469.203.874.485 1.216.848.352.363.618.795.8 1.296.192.49.282 1.03.272 1.616l-.016.704h-6.864l-.368-1.312h5.808l-.24.272v-.384a1.86 1.86 0 0 0-.352-.944 2.181 2.181 0 0 0-1.776-.896c-.576 0-1.062.112-1.456.336a2.059 2.059 0 0 0-.896.96c-.203.416-.304.933-.304 1.552 0 .587.122 1.099.368 1.536a2.52 2.52 0 0 0 1.04.992c.448.235.965.352 1.552.352.416 0 .8-.07 1.152-.208.362-.139.752-.39 1.168-.752l.832 1.168c-.256.256-.571.48-.944.672a5.932 5.932 0 0 1-1.168.464c-.406.107-.806.16-1.2.16ZM119.277 16V7.6h1.648v1.728l-.288.192c.106-.373.314-.715.624-1.024.309-.32.677-.576 1.104-.768a3.024 3.024 0 0 1 1.312-.304c.64 0 1.173.128 1.6.384.426.245.746.624.96 1.136.213.512.32 1.157.32 1.936V16h-1.648v-5.008c0-.48-.064-.875-.192-1.184-.128-.32-.326-.55-.592-.688-.267-.15-.598-.213-.992-.192-.32 0-.614.053-.88.16a2.112 2.112 0 0 0-.704.416 2.138 2.138 0 0 0-.464.64c-.107.235-.16.49-.16.768V16h-1.648ZM132.296 16.16c-.768 0-1.456-.187-2.064-.56a4.166 4.166 0 0 1-1.424-1.552c-.352-.661-.528-1.413-.528-2.256 0-.843.171-1.59.512-2.24A4.01 4.01 0 0 1 130.216 8c.597-.384 1.275-.576 2.032-.576.416 0 .816.07 1.2.208.395.128.747.31 1.056.544.309.224.549.475.72.752.181.267.272.539.272.816l-.48.032V4.16h1.648V16h-1.648v-2h.32c0 .256-.085.512-.256.768-.171.245-.4.475-.688.688a3.39 3.39 0 0 1-.976.512 3.343 3.343 0 0 1-1.12.192Zm.224-1.424c.501 0 .944-.128 1.328-.384a2.58 2.58 0 0 0 .896-1.04c.224-.448.336-.955.336-1.52 0-.565-.112-1.067-.336-1.504a2.558 2.558 0 0 0-.896-1.056 2.339 2.339 0 0 0-1.328-.384c-.501 0-.944.128-1.328.384a2.677 2.677 0 0 0-.912 1.056c-.213.437-.32.939-.32 1.504 0 .565.107 1.072.32 1.52.224.437.528.784.912 1.04s.827.384 1.328.384ZM142.853 16.16c-.864 0-1.632-.181-2.304-.544a4.201 4.201 0 0 1-1.568-1.52c-.374-.64-.56-1.376-.56-2.208a4.9 4.9 0 0 1 .32-1.808 4.3 4.3 0 0 1 .88-1.408 3.858 3.858 0 0 1 1.36-.928 4.414 4.414 0 0 1 1.728-.336c.544 0 1.05.107 1.52.32.469.203.874.485 1.216.848.352.363.618.795.8 1.296.192.49.282 1.03.272 1.616l-.016.704h-6.864l-.368-1.312h5.808l-.24.272v-.384a1.86 1.86 0 0 0-.352-.944 2.181 2.181 0 0 0-1.776-.896c-.576 0-1.062.112-1.456.336a2.059 2.059 0 0 0-.896.96c-.203.416-.304.933-.304 1.552 0 .587.122 1.099.368 1.536a2.52 2.52 0 0 0 1.04.992c.448.235.965.352 1.552.352.416 0 .8-.07 1.152-.208.362-.139.752-.39 1.168-.752l.832 1.168c-.256.256-.571.48-.944.672a5.932 5.932 0 0 1-1.168.464c-.406.107-.806.16-1.2.16ZM148.308 16V7.6h1.664v2.64l-.16-.64c.117-.405.314-.773.592-1.104.288-.33.613-.592.976-.784a2.488 2.488 0 0 1 1.152-.288c.181 0 .352.016.512.048.17.032.304.07.4.112l-.432 1.792a2.292 2.292 0 0 0-.432-.128 1.63 1.63 0 0 0-.448-.064c-.288 0-.566.059-.832.176a2.111 2.111 0 0 0-.688.464 2.227 2.227 0 0 0-.464.688 2.001 2.001 0 0 0-.176.848V16h-1.664Z" fill="#fff"/><path d="M66.307 27.06a2.03 2.03 0 0 1-.804-.156 1.864 1.864 0 0 1-.636-.444 2.117 2.117 0 0 1-.42-.69 2.529 2.529 0 0 1-.144-.87c0-.3.052-.578.156-.834.108-.26.256-.488.444-.684a1.992 1.992 0 0 1 2.052-.522c.196.06.372.146.528.258.16.108.29.232.39.372l-.432.45a1.94 1.94 0 0 0-.528-.396 1.244 1.244 0 0 0-.552-.132c-.196 0-.38.038-.552.114a1.358 1.358 0 0 0-.444.306c-.124.132-.222.29-.294.474-.072.18-.108.378-.108.594 0 .228.034.436.102.624.072.184.172.342.3.474.128.132.28.234.456.306.18.068.378.102.594.102a1.434 1.434 0 0 0 .75-.21 1.62 1.62 0 0 0 .306-.24l.324.528a1.334 1.334 0 0 1-.378.294 2.238 2.238 0 0 1-1.11.282ZM71.075 27v-4.2h.648v3.576h1.968V27h-2.616ZM76.63 27l1.625-4.2h.66L80.53 27h-.69l-.96-2.532a3.58 3.58 0 0 1-.072-.204 11.3 11.3 0 0 0-.114-.36l-.12-.36a6.315 6.315 0 0 0-.072-.216l.138-.006-.09.258c-.032.104-.068.214-.108.33a10.761 10.761 0 0 1-.198.582L77.29 27h-.66Zm.72-1.044.24-.624h1.907l.276.624H77.35ZM84.964 27.06c-.344 0-.648-.068-.912-.204a1.874 1.874 0 0 1-.672-.612l.444-.51c.196.28.384.474.564.582.18.108.394.162.642.162.152 0 .29-.024.414-.072a.72.72 0 0 0 .294-.198.43.43 0 0 0 .108-.288.576.576 0 0 0-.036-.204.486.486 0 0 0-.114-.174.752.752 0 0 0-.192-.144 1.305 1.305 0 0 0-.27-.114 2.362 2.362 0 0 0-.36-.09 2.683 2.683 0 0 1-.564-.174 1.337 1.337 0 0 1-.402-.27 1.038 1.038 0 0 1-.24-.366 1.336 1.336 0 0 1-.078-.468c0-.228.064-.43.192-.606s.3-.314.516-.414c.22-.104.466-.156.738-.156.324 0 .606.064.846.192.244.124.436.306.576.546l-.456.45a1.335 1.335 0 0 0-.432-.45 1.01 1.01 0 0 0-.552-.156c-.156 0-.292.024-.408.072a.658.658 0 0 0-.276.204.48.48 0 0 0-.096.3.57.57 0 0 0 .048.234.57.57 0 0 0 .144.186c.068.052.158.1.27.144.112.04.246.076.402.108.22.048.416.11.588.186.172.072.318.158.438.258s.21.212.27.336a.864.864 0 0 1 .096.402c0 .268-.062.5-.186.696a1.23 1.23 0 0 1-.528.456c-.228.104-.5.156-.816.156ZM91.109 27.06c-.344 0-.648-.068-.912-.204a1.874 1.874 0 0 1-.672-.612l.444-.51c.196.28.384.474.564.582.18.108.394.162.641.162.152 0 .29-.024.414-.072a.72.72 0 0 0 .294-.198.43.43 0 0 0 .108-.288.576.576 0 0 0-.035-.204.486.486 0 0 0-.114-.174.752.752 0 0 0-.192-.144 1.305 1.305 0 0 0-.27-.114 2.362 2.362 0 0 0-.36-.09 2.683 2.683 0 0 1-.565-.174 1.337 1.337 0 0 1-.401-.27 1.038 1.038 0 0 1-.24-.366 1.336 1.336 0 0 1-.079-.468c0-.228.065-.43.193-.606.127-.176.3-.314.515-.414.22-.104.467-.156.739-.156.323 0 .606.064.846.192.243.124.436.306.576.546l-.456.45a1.335 1.335 0 0 0-.433-.45 1.01 1.01 0 0 0-.552-.156c-.156 0-.291.024-.408.072a.658.658 0 0 0-.276.204.48.48 0 0 0-.096.3.57.57 0 0 0 .048.234.57.57 0 0 0 .144.186c.069.052.159.1.27.144.113.04.247.076.403.108.22.048.415.11.588.186.172.072.318.158.438.258s.21.212.27.336a.864.864 0 0 1 .095.402c0 .268-.062.5-.186.696a1.23 1.23 0 0 1-.528.456c-.228.104-.5.156-.816.156ZM95.8 27v-.6h.679v-3H95.8v-.6h2.004v.6h-.678v3h.678v.6H95.8ZM102.838 27.06a2.03 2.03 0 0 1-.804-.156 1.864 1.864 0 0 1-.636-.444 2.117 2.117 0 0 1-.42-.69 2.529 2.529 0 0 1-.144-.87c0-.3.052-.578.156-.834.108-.26.256-.488.444-.684a1.992 1.992 0 0 1 2.052-.522c.196.06.372.146.528.258.16.108.29.232.39.372l-.432.45a1.94 1.94 0 0 0-.528-.396 1.244 1.244 0 0 0-.552-.132c-.196 0-.38.038-.552.114a1.358 1.358 0 0 0-.444.306c-.124.132-.222.29-.294.474-.072.18-.108.378-.108.594 0 .228.034.436.102.624.072.184.172.342.3.474.128.132.28.234.456.306.18.068.378.102.594.102a1.434 1.434 0 0 0 .75-.21 1.62 1.62 0 0 0 .306-.24l.324.528a1.334 1.334 0 0 1-.378.294 2.238 2.238 0 0 1-1.11.282Z" fill="#00A4FF"/><defs><linearGradient id="a" x1="22.991" y1="10.383" x2="22.991" y2="31.05" gradientUnits="userSpaceOnUse"><stop stop-color="#0728DA"/><stop offset="1" stop-color="#2AB3FF"/></linearGradient><linearGradient id="b" x1="48.495" y1="8.1" x2="29.94" y2="19.304" gradientUnits="userSpaceOnUse"><stop offset=".01" stop-color="#0429EC"/><stop offset=".188" stop-color="#0429EC"/><stop offset="1" stop-color="#0A1361"/></linearGradient><linearGradient id="c" x1="29.97" y1="1.034" x2=".006" y2="30.953" gradientUnits="userSpaceOnUse"><stop stop-color="#B7E5FF"/><stop offset="1" stop-color="#15ABFF"/></linearGradient></defs></svg>
